<svg width="14" height="14" viewBox="0 0 14 14" fill="none" xmlns="http://www.w3.org/2000/svg">
<path d="M11.7458 6V3" stroke="black" stroke-linecap="round" stroke-linejoin="round"/>
<path d="M13.2458 4.5H10.2458" stroke="black" stroke-linecap="round" stroke-linejoin="round"/>
<path d="M8.74579 0.5V2.5" stroke="black" stroke-linecap="round" stroke-linejoin="round"/>
<path d="M9.74579 1.5H7.74579" stroke="black" stroke-linecap="round" stroke-linejoin="round"/>
<path d="M11.7894 8.53755C10.8078 8.81283 9.77051 8.82185 8.78421 8.56369C7.7979 8.30553 6.89808 7.78949 6.17716 7.06857C5.45624 6.34765 4.94021 5.44783 4.68204 4.46152C4.42388 3.47522 4.43291 2.43797 4.70818 1.4563C3.74035 1.72568 2.85998 2.24394 2.15477 2.95944C1.44956 3.67495 0.944123 4.56274 0.6888 5.53438C0.433476 6.50602 0.437179 7.52759 0.699539 8.49736C0.961899 9.46712 1.47376 10.3512 2.18414 11.0616C2.89451 11.772 3.77861 12.2838 4.74838 12.5462C5.71814 12.8086 6.73971 12.8123 7.71135 12.5569C8.68299 12.3016 9.57078 11.7962 10.2863 11.091C11.0018 10.3858 11.52 9.50538 11.7894 8.53755Z" stroke="black" stroke-linecap="round" stroke-linejoin="round"/>
</svg>
